<svg width="391" height="391" viewBox="0 0 391 391" fill="none" xmlns="http://www.w3.org/2000/svg">
<g filter="url(#filter0_d)">
<path d="M195.5 -6.94059e-05C243.532 -7.15055e-05 289.811 18.0501 325.159 50.5713C360.506 83.0924 382.342 127.71 386.337 175.576C390.331 223.441 376.191 271.061 346.722 308.99C317.253 346.92 274.606 372.391 227.238 380.351C179.87 388.312 131.24 378.182 90.9913 351.969C50.7423 325.756 21.8136 285.375 9.94159 238.833C-1.93046 192.291 4.12113 142.987 26.8964 100.697C49.6716 58.4079 87.5073 26.2215 132.901 10.5203L195.5 191.5L195.5 -6.94059e-05Z" fill="#FF9000"/>
<path d="M102.786 233.141C102.786 235.215 102.633 237.289 102.327 239.363C102.021 241.403 101.477 243.341 100.695 245.177C99.947 246.979 98.876 248.594 97.482 250.022C96.122 251.416 94.371 252.521 92.229 253.337C90.121 254.119 87.554 254.51 84.528 254.51C83.814 254.51 82.981 254.476 82.029 254.408C81.077 254.374 80.278 254.289 79.632 254.153V247.982C80.312 248.118 81.026 248.237 81.774 248.339C82.522 248.441 83.27 248.492 84.018 248.492C87.044 248.492 89.373 248.016 91.005 247.064C92.671 246.078 93.844 244.735 94.524 243.035C95.204 241.335 95.595 239.363 95.697 237.119H95.391C94.677 238.309 93.725 239.312 92.535 240.128C91.379 240.944 89.645 241.352 87.333 241.352C84.239 241.352 81.757 240.349 79.887 238.343C78.017 236.337 77.082 233.498 77.082 229.826C77.082 225.882 78.187 222.788 80.397 220.544C82.641 218.3 85.667 217.178 89.475 217.178C91.957 217.178 94.201 217.756 96.207 218.912C98.213 220.034 99.811 221.785 101.001 224.165C102.191 226.511 102.786 229.503 102.786 233.141ZM89.628 223.349C88.132 223.349 86.908 223.859 85.956 224.879C85.004 225.899 84.528 227.514 84.528 229.724C84.528 231.492 84.936 232.886 85.752 233.906C86.568 234.926 87.809 235.436 89.475 235.436C90.631 235.436 91.617 235.181 92.433 234.671C93.283 234.161 93.946 233.532 94.422 232.784C94.898 232.002 95.136 231.203 95.136 230.387C95.136 229.265 94.932 228.16 94.524 227.072C94.116 225.984 93.504 225.1 92.688 224.42C91.872 223.706 90.852 223.349 89.628 223.349Z" fill="white"/>
<path d="M132.941 246.452H128.555V254H121.058V246.452H105.503V241.097L121.466 217.586H128.555V240.485H132.941V246.452ZM121.058 240.485V234.314C121.058 233.532 121.075 232.58 121.109 231.458C121.143 230.336 121.177 229.299 121.211 228.347C121.279 227.361 121.33 226.715 121.364 226.409H121.16C120.854 227.089 120.531 227.752 120.191 228.398C119.851 229.044 119.443 229.707 118.967 230.387L112.286 240.485H121.058Z" fill="white"/>
<path d="M136.728 250.43C136.728 248.866 137.153 247.778 138.003 247.166C138.853 246.52 139.89 246.197 141.114 246.197C142.304 246.197 143.324 246.52 144.174 247.166C145.024 247.778 145.449 248.866 145.449 250.43C145.449 251.926 145.024 253.014 144.174 253.694C143.324 254.34 142.304 254.663 141.114 254.663C139.89 254.663 138.853 254.34 138.003 253.694C137.153 253.014 136.728 251.926 136.728 250.43Z" fill="white"/>
<path d="M154.025 254L167.693 224.063H149.741V217.586H175.853V222.431L162.083 254H154.025Z" fill="white"/>
<path d="M183.99 245.768C186.986 245.768 189.058 243.304 189.058 239.132C189.058 234.96 186.986 232.58 183.99 232.58C181.022 232.58 178.922 234.96 178.922 239.132C178.922 243.304 181.022 245.768 183.99 245.768ZM183.99 243.416C182.786 243.416 181.834 242.184 181.834 239.132C181.834 236.08 182.786 234.904 183.99 234.904C185.222 234.904 186.174 236.08 186.174 239.132C186.174 242.184 185.222 243.416 183.99 243.416ZM199.138 254.14C202.106 254.14 204.206 251.676 204.206 247.532C204.206 243.36 202.106 240.952 199.138 240.952C196.17 240.952 194.042 243.36 194.042 247.532C194.042 251.676 196.17 254.14 199.138 254.14ZM199.138 251.816C197.906 251.816 196.954 250.556 196.954 247.532C196.954 244.452 197.906 243.304 199.138 243.304C200.37 243.304 201.294 244.452 201.294 247.532C201.294 250.556 200.37 251.816 199.138 251.816ZM184.69 254.14H187.126L198.466 232.58H196.002L184.69 254.14Z" fill="white"/>
<path d="M217.733 244.22C216.956 244.22 216.116 243.191 216.116 241.091C216.116 238.802 217.943 235.778 221.387 235.064C221.135 236.786 220.757 238.571 220.274 240.104C219.434 242.918 218.594 244.22 217.733 244.22ZM223.445 248.861C228.695 248.063 231.383 244.955 231.383 240.587C231.383 236.051 228.128 232.46 222.983 232.46C217.586 232.46 213.407 236.576 213.407 241.364C213.407 244.871 215.36 247.412 217.649 247.412C219.917 247.412 221.723 244.85 222.962 240.65C223.55 238.697 223.907 236.765 224.201 235.001C226.994 235.484 228.548 237.626 228.548 240.503C228.548 243.527 226.49 245.438 223.823 246.068C223.277 246.194 222.689 246.299 221.891 246.404L223.445 248.861Z" fill="white"/>
<path d="M241.904 233.615C242.261 234.434 242.576 235.484 242.702 236.219H238.691L239.783 235.904C239.573 235.232 239.09 234.287 238.607 233.51C240.392 233.426 242.219 233.3 243.983 233.132L241.904 233.615ZM236.696 238.382H250.241V240.776H252.677V236.219H249.695C250.178 235.442 250.724 234.581 251.207 233.699L248.54 233.069C248.225 234.014 247.679 235.253 247.175 236.219H243.521L245.075 235.841C244.949 235.085 244.55 233.972 244.13 233.132C246.923 232.88 249.632 232.544 251.9 232.124L250.22 230.108C246.398 230.843 240.077 231.347 234.554 231.536C234.785 232.082 235.079 233.027 235.121 233.657C236.129 233.636 237.2 233.594 238.25 233.531L236.381 234.056C236.759 234.728 237.158 235.568 237.368 236.219H234.365V240.776H236.696V238.382ZM246.377 242.288C245.621 243.254 244.634 244.052 243.521 244.724C242.261 244.031 241.19 243.233 240.329 242.288H246.377ZM248.456 239.894L247.994 239.999H237.389V242.288H238.376L237.683 242.582C238.607 243.863 239.72 244.976 241.001 245.879C238.922 246.656 236.486 247.139 233.861 247.412C234.386 247.916 235.079 249.029 235.331 249.617C238.292 249.218 241.085 248.525 243.5 247.37C245.768 248.483 248.477 249.197 251.522 249.575C251.858 248.903 252.53 247.811 253.055 247.244C250.472 247.013 248.12 246.53 246.104 245.816C247.805 244.577 249.191 242.981 250.136 240.923L248.456 239.894Z" fill="white"/>
<path d="M261.287 230.864H255.722V232.754H261.287V230.864ZM261.959 233.762H254.693V235.736H261.959V233.762ZM261.35 236.765H255.596V238.634H261.35V236.765ZM255.596 241.574H261.35V239.684H255.596V241.574ZM259.334 244.619V247.013H257.591V244.619H259.334ZM261.413 242.645H255.533V249.806H257.591V248.987H261.413V242.645ZM269.12 244.787V243.8H271.073V244.787H269.12ZM265.088 243.8H267.062V244.787H265.088V243.8ZM267.062 241.28V242.267H265.088V241.28H267.062ZM271.073 241.28V242.267H269.12V241.28H271.073ZM266.936 236.009H269.372V236.912H266.936V236.009ZM266.936 233.447H269.372V234.287H266.936V233.447ZM274.391 244.787H273.341V239.558H269.12V238.802H274.349V236.912H271.619V236.009H273.53V234.287H271.619V233.447H273.971V231.683H271.619V230.213H269.372V231.683H266.936V230.213H264.71V231.683H262.526V233.447H264.71V234.287H262.904V236.009H264.71V236.912H261.98V238.802H267.062V239.558H262.988V244.787H261.938V246.761H262.988V249.827H265.088V246.761H271.073V247.601C271.073 247.853 270.989 247.916 270.716 247.937C270.464 247.937 269.54 247.937 268.721 247.895C268.973 248.441 269.225 249.239 269.288 249.827C270.695 249.827 271.724 249.806 272.417 249.491C273.131 249.176 273.341 248.672 273.341 247.622V246.761H274.391V244.787Z" fill="white"/>
<path d="M285.311 234.644H288.734C288.02 235.316 287.264 235.946 286.466 236.555H285.311V234.644ZM289.889 243.821H282.665V242.477H289.889V243.821ZM282.665 247.139V245.711H289.889V247.139H282.665ZM294.908 238.76V236.555H290.036C291.569 235.148 292.976 233.594 294.173 231.935L292.031 230.843C291.38 231.767 290.666 232.649 289.868 233.51V232.481H285.311V230.213H282.833V232.481H277.898V234.644H282.833V236.555H276.092V238.76H283.232C280.817 240.188 278.171 241.385 275.42 242.246C275.903 242.75 276.638 243.758 276.953 244.304C278.024 243.905 279.116 243.443 280.166 242.981V249.848H282.665V249.218H289.889V249.764H292.493V240.44H284.87C285.731 239.894 286.529 239.348 287.348 238.76H294.908Z" fill="white"/>
<path d="M316.58 232.67C316.223 231.935 315.446 230.612 314.879 229.814L313.22 230.507C313.808 231.284 314.48 232.523 314.921 233.405L316.58 232.67ZM302.468 231.305C302.489 232.607 302.321 234.119 302.027 235.715C300.977 235.799 299.99 235.862 299.339 235.883C298.583 235.904 297.89 235.946 297.134 235.883L297.365 238.697C298.016 238.592 299.087 238.445 299.675 238.382C300.074 238.319 300.725 238.235 301.46 238.151C300.725 240.986 299.297 245.144 297.281 247.874L299.99 248.966C301.901 245.9 303.413 241.007 304.232 237.857C304.82 237.815 305.324 237.773 305.66 237.773C306.962 237.773 307.676 238.004 307.676 239.663C307.676 241.721 307.403 244.199 306.836 245.354C306.5 246.047 305.975 246.257 305.282 246.257C304.736 246.257 303.518 246.047 302.72 245.816L303.182 248.567C303.875 248.735 304.883 248.861 305.66 248.861C307.256 248.861 308.39 248.399 309.083 246.95C309.965 245.144 310.259 241.826 310.259 239.369C310.259 236.387 308.705 235.4 306.5 235.4C306.08 235.4 305.45 235.442 304.757 235.484C304.904 234.728 305.072 233.972 305.198 233.342C305.303 232.817 305.429 232.166 305.555 231.62L302.468 231.305ZM314.081 233.636C313.661 232.859 312.926 231.536 312.401 230.759L310.742 231.452C311.225 232.124 311.75 233.132 312.17 233.93L310.238 234.749C311.729 236.597 313.199 240.272 313.745 242.582L316.391 241.343C315.782 239.516 314.228 236.009 313.01 234.098L314.081 233.636Z" fill="white"/>
<path d="M72.4609 280.527H74.9389V269.376H79.4119V267.108H72.4609V280.527Z" fill="white"/>
<path d="M86.0689 285.882C86.5729 285.567 87.0349 285.42 87.3289 285.315C92.2639 283.698 96.6319 281.199 99.5089 277.755L98.0179 275.382C95.3299 278.658 90.6469 281.346 87.2239 282.312V271.413C87.2239 270.594 87.3079 269.838 87.4339 269.04H84.1369C84.2629 269.628 84.3679 270.615 84.3679 271.413V282.795C84.3679 283.278 84.3469 283.635 84.0949 284.16L86.0689 285.882Z" fill="white"/>
<path d="M111.605 272.505L109.106 273.324C109.631 274.416 110.555 276.957 110.807 277.986L113.327 277.104C113.033 276.138 112.004 273.408 111.605 272.505ZM116.393 273.093C116.162 275.718 115.154 278.511 113.726 280.296C111.983 282.48 109.064 284.076 106.754 284.685L108.959 286.932C111.416 286.008 114.041 284.244 115.994 281.724C117.422 279.876 118.304 277.692 118.85 275.571C118.976 275.151 119.102 274.71 119.354 274.038L116.393 273.093ZM106.733 273.618L104.213 274.521C104.717 275.445 105.767 278.238 106.124 279.372L108.686 278.406C108.266 277.23 107.258 274.689 106.733 273.618Z" fill="white"/>
<path d="M137.792 269.481C137.372 269.628 136.532 269.754 135.608 269.754H128.216C127.586 269.754 126.305 269.691 125.738 269.607V272.589C126.179 272.568 127.334 272.442 128.216 272.442H135.335C134.873 273.933 133.592 276.012 132.206 277.587C130.232 279.792 126.977 282.333 123.596 283.614L125.759 285.882C128.636 284.517 131.429 282.333 133.655 279.981C135.629 281.892 137.582 284.034 138.947 285.924L141.341 283.845C140.102 282.333 137.561 279.645 135.482 277.839C136.889 275.949 138.065 273.702 138.779 272.064C138.968 271.644 139.346 270.993 139.514 270.762L137.792 269.481Z" fill="white"/>
<path d="M148.061 269.04L146.087 271.14C147.62 272.211 150.245 274.5 151.337 275.676L153.479 273.471C152.261 272.211 149.531 270.027 148.061 269.04ZM145.436 283.026L147.2 285.798C150.161 285.294 152.87 284.118 154.991 282.837C158.372 280.8 161.165 277.902 162.761 275.067L161.123 272.106C159.8 274.941 157.049 278.154 153.479 280.275C151.442 281.493 148.712 282.564 145.436 283.026Z" fill="white"/>
<path d="M184.58 269.67C184.223 268.935 183.446 267.612 182.879 266.814L181.22 267.507C181.808 268.284 182.48 269.523 182.921 270.405L184.58 269.67ZM170.468 268.305C170.489 269.607 170.321 271.119 170.027 272.715C168.977 272.799 167.99 272.862 167.339 272.883C166.583 272.904 165.89 272.946 165.134 272.883L165.365 275.697C166.016 275.592 167.087 275.445 167.675 275.382C168.074 275.319 168.725 275.235 169.46 275.151C168.725 277.986 167.297 282.144 165.281 284.874L167.99 285.966C169.901 282.9 171.413 278.007 172.232 274.857C172.82 274.815 173.324 274.773 173.66 274.773C174.962 274.773 175.676 275.004 175.676 276.663C175.676 278.721 175.403 281.199 174.836 282.354C174.5 283.047 173.975 283.257 173.282 283.257C172.736 283.257 171.518 283.047 170.72 282.816L171.182 285.567C171.875 285.735 172.883 285.861 173.66 285.861C175.256 285.861 176.39 285.399 177.083 283.95C177.965 282.144 178.259 278.826 178.259 276.369C178.259 273.387 176.705 272.4 174.5 272.4C174.08 272.4 173.45 272.442 172.757 272.484C172.904 271.728 173.072 270.972 173.198 270.342C173.303 269.817 173.429 269.166 173.555 268.62L170.468 268.305ZM182.081 270.636C181.661 269.859 180.926 268.536 180.401 267.759L178.742 268.452C179.225 269.124 179.75 270.132 180.17 270.93L178.238 271.749C179.729 273.597 181.199 277.272 181.745 279.582L184.391 278.343C183.782 276.516 182.228 273.009 181.01 271.098L182.081 270.636Z" fill="white"/>
<path d="M191.132 271.581C190.46 270.636 188.99 269.355 187.772 268.515L186.05 269.943C187.289 270.867 188.696 272.232 189.305 273.198L191.132 271.581ZM190.67 273.471C188.822 274.458 186.953 275.466 185.693 276.033L186.932 278.091C188.255 277.356 189.893 276.369 191.342 275.466L190.67 273.471ZM193.715 274.374H197.159V275.802H193.715V274.374ZM197.159 272.589H193.715V271.203H197.159V272.589ZM204.845 281.262V279.099H196.739V277.692H199.595V275.235C201.107 276.075 202.892 277.23 203.795 278.028L205.328 276.159C204.257 275.298 202.073 274.038 200.519 273.282L199.595 274.332V271.728L201.233 272.82C202.304 271.98 203.648 270.741 204.761 269.523L202.619 268.242C201.863 269.229 200.603 270.531 199.595 271.392V269.292H196.403C196.613 268.746 196.865 268.137 197.096 267.507L194.324 267.213C194.24 267.801 194.072 268.599 193.883 269.292H191.405V277.692H194.219V279.099H186.176V281.262H192.161C190.418 282.669 187.982 283.887 185.63 284.538C186.155 285.042 186.911 285.987 187.31 286.638C189.767 285.735 192.329 284.202 194.219 282.333V286.785H196.739V282.396C198.671 284.16 201.254 285.651 203.711 286.47C204.089 285.861 204.845 284.874 205.37 284.37C203.018 283.74 200.54 282.606 198.797 281.262H204.845Z" fill="white"/>
<path d="M210.473 268.368C210.662 269.187 210.746 270.195 210.746 271.182C210.746 272.967 210.536 278.427 210.536 281.22C210.536 284.769 212.741 286.26 216.143 286.26C220.889 286.26 223.829 283.488 225.173 281.514L223.283 279.183C221.792 281.451 219.608 283.425 216.164 283.425C214.568 283.425 213.308 282.753 213.308 280.653C213.308 278.07 213.455 273.408 213.56 271.182C213.581 270.342 213.686 269.292 213.833 268.41L210.473 268.368Z" fill="white"/>
<path d="M232.502 270.048L229.31 270.006C229.436 270.636 229.457 271.518 229.457 272.106C229.457 273.387 229.499 275.802 229.688 277.713C230.276 283.299 232.271 285.357 234.539 285.357C236.219 285.357 237.521 284.076 238.907 280.464L236.807 277.944C236.408 279.582 235.589 282.018 234.602 282.018C233.3 282.018 232.67 279.981 232.376 276.978C232.25 275.487 232.229 273.912 232.25 272.568C232.25 272.001 232.355 270.783 232.502 270.048ZM242.897 270.489L240.251 271.371C242.519 273.933 243.632 278.826 243.947 282.165L246.698 281.115C246.467 277.923 244.871 272.904 242.897 270.489Z" fill="white"/>
<path d="M255.56 273.513H253.061V284.664H248.588V286.932H255.56V273.513Z" fill="white"/>
<path d="M284.561 270.363C284.036 270.804 283.427 271.161 282.65 271.623C281.663 272.169 279.857 273.093 278.156 274.08C277.316 272.484 276.35 270.489 275.552 268.326L272.927 269.397C273.872 271.602 274.88 273.807 275.846 275.592C273.851 277.062 272.402 278.763 272.402 281.073C272.402 284.643 275.531 285.798 279.668 285.798C282.377 285.798 284.582 285.588 286.346 285.294L286.388 282.291C284.54 282.711 281.726 283.047 279.584 283.047C276.707 283.047 275.258 282.249 275.258 280.758C275.258 279.309 276.413 278.112 278.156 276.978C280.046 275.76 282.65 274.542 283.952 273.891C284.708 273.513 285.38 273.156 286.01 272.778L284.561 270.363Z" fill="white"/>
<path d="M302.201 278.763H298.505V275.13H302.201V278.763ZM296.153 272.946V280.926H304.721V272.946H296.153ZM294.137 283.362V270.468H306.758V283.362H294.137ZM291.533 267.906V286.806H294.137V285.693H306.758V286.806H309.488V267.906H291.533Z" fill="white"/>
<path d="M325.28 282.123V284.097H317.657V282.123H325.28ZM315.263 286.827H317.657V286.26H325.28V286.764H327.779V279.981H315.263V286.827ZM318.812 276.558C319.841 275.781 320.744 274.962 321.416 274.164C322.13 274.962 323.054 275.781 324.104 276.558H318.812ZM324.839 270.972C325.406 271.812 326.015 272.778 326.267 273.45L328.577 272.631C328.367 272.148 327.989 271.56 327.569 270.972H330.971V268.872H325.112C325.301 268.431 325.49 267.99 325.658 267.549L323.201 266.982C322.76 268.263 322.025 269.544 321.143 270.552V268.872H316.586C316.796 268.452 316.964 268.011 317.132 267.591L314.738 266.982C314.066 268.914 312.848 270.93 311.504 272.169C312.092 272.484 313.1 273.156 313.583 273.534C314.213 272.841 314.864 271.959 315.473 270.972H315.683C316.187 271.812 316.649 272.799 316.838 273.45L319.043 272.715C318.875 272.211 318.539 271.581 318.182 270.972H320.744C320.576 271.119 320.429 271.266 320.261 271.392C320.555 271.539 320.954 271.791 321.353 272.064H320.135C318.434 274.248 315.074 276.684 311.546 277.986C312.029 278.511 312.617 279.393 312.89 279.918C314.423 279.288 315.935 278.49 317.321 277.587V278.595H325.742V277.671C327.149 278.553 328.661 279.33 330.047 279.876C330.446 279.225 330.95 278.385 331.517 277.797C328.367 276.852 325.07 274.899 322.802 272.379C323.18 271.98 323.537 271.497 323.894 270.972H324.839Z" fill="white"/>
<path fill-rule="evenodd" clip-rule="evenodd" d="M379 190C379 88.9492 296.862 7.00002 195.5 7.00002C94.1384 7.00003 12 88.9492 12 190C12 291.051 94.1384 373 195.5 373C296.862 373 379 291.051 379 190ZM386 190C386 85.0659 300.71 1.75917e-05 195.5 2.21906e-05C90.2897 2.67894e-05 4.99999 85.0659 4.99999 190C5 294.934 90.2898 380 195.5 380C300.71 380 386 294.934 386 190Z" fill="#FF9000"/>
</g>
<defs>
<filter id="filter0_d" x="-0.000488281" y="0" width="391.001" height="391.001" filterUnits="userSpaceOnUse" color-interpolation-filters="sRGB">
<feFlood flood-opacity="0" result="BackgroundImageFix"/>
<feColorMatrix in="SourceAlpha" type="matrix" values="0 0 0 0 0 0 0 0 0 0 0 0 0 0 0 0 0 0 127 0"/>
<feOffset dy="4"/>
<feGaussianBlur stdDeviation="2"/>
<feColorMatrix type="matrix" values="0 0 0 0 0 0 0 0 0 0 0 0 0 0 0 0 0 0 0.25 0"/>
<feBlend mode="normal" in2="BackgroundImageFix" result="effect1_dropShadow"/>
<feBlend mode="normal" in="SourceGraphic" in2="effect1_dropShadow" result="shape"/>
</filter>
</defs>
</svg>
