<svg width="200" height="64" viewBox="0 0 200 64" fill="none" xmlns="http://www.w3.org/2000/svg">
<path d="M7.24175 18.2289L116.32 5.98527L110.466 18.7176L1.38836 30.9612L7.24175 18.2289Z" fill="#FFFF00"/>
<path d="M8.5283 50.6355L197.786 29.392L190.646 42.7178L1.38832 63.9613L8.5283 50.6355Z" fill="#FFFF00"/>
<path d="M15.6021 24.5495L15.676 23.9332L18.3783 17.4326H17.9649C16.6801 17.7848 15.4102 18.1663 14.1107 18.6065C12.802 19.0379 11.4282 19.2414 10.0498 19.2082V18.7826L14.0221 17.5353V16.9484C13.9262 16.1981 13.9262 15.4388 14.0221 14.6886L14.3027 12.3554L14.7604 10.0223L17.1231 9.89022L17.0198 10.756L16.9016 11.0935H17.1674C18.525 10.5227 19.9155 10.0327 21.3317 9.62609L22.07 7.71848L24.1522 7.51304L24.6838 4.41685H24.0193L20.0913 5.32663L19.9731 6.33913V6.67663H20.1651L20.6377 6.23641C21.5085 6.03102 22.4006 5.9276 23.2957 5.92826V6.3538L22.9118 6.72065C22.3179 7.33805 21.5601 7.77561 20.7263 7.98261C19.9131 8.16615 19.0766 8.22553 18.2454 8.1587L17.7729 7.85054C17.6043 7.23913 17.5641 6.5998 17.6547 5.97228H17.4185C16.7137 6.23723 15.9803 6.41945 15.233 6.51522C14.4684 6.60478 13.6992 6.64888 12.9293 6.64728V6.22174L17.7877 5.01848C18.0126 3.73173 18.3435 2.46551 18.777 1.23261L21.1988 1.12989V1.64348L20.3276 4.49022H20.682L24.9348 3.56576L25.9537 0.132065L28.2574 0L28.1835 0.660327L27.4747 3.08152H27.9768C29.1375 2.77209 30.3339 2.61424 31.5356 2.61196V3.0375L27.268 3.84457L26.6182 7.29293L24.7281 7.39565C24.622 7.90539 24.4482 8.39885 24.2112 8.86304H24.8167L24.9053 8.775L28.5822 8.54022L29.8079 8.89239V9.0538L30.0589 9.14185C30.2594 9.74205 30.2594 10.3906 30.0589 10.9908L28.6856 14.5565H29.7193L29.8079 14.4685L33.4701 14.263V14.6886C31.3437 14.9087 29.2615 15.2022 27.2237 15.5397C25.1859 15.8772 23.1333 16.3027 21.1102 16.8016L17.891 24.4614L15.6021 24.5495ZM18.8509 16.3761V16.112L20.8444 10.9174H20.49C19.331 11.5608 18.074 12.0118 16.7687 12.2527L16.3996 15.1875V16.8897H16.7687L18.8509 16.3761ZM26.1457 14.9087C26.4263 14.0576 26.7364 13.2359 27.076 12.4582C27.4225 11.6721 27.68 10.8502 27.8439 10.0076L27.0022 9.1712H26.3524L23.7092 9.83152L21.4794 15.8185H21.8042L26.1457 14.9087ZM24.7724 24.0946C24.2851 23.038 23.783 22.0255 23.2957 21.0277C22.7636 20.0359 22.3947 18.9658 22.2029 17.8582L24.5066 17.7261C24.8763 18.7946 25.3459 19.8263 25.9094 20.8076C26.4654 21.804 26.8685 22.8772 27.1056 23.9918L24.7724 24.0946Z" fill="black"/>
<path d="M34.0898 8.59866V8.09975L40.1 6.63235V6.3829L40.7497 0.982897V0.27855L43.1419 0.146484L43.009 1.84866L42.5217 5.94268H43.0238C44.0657 5.70886 45.1305 5.59075 46.1987 5.59051V6.0454C44.1756 6.42692 42.1673 6.91116 40.1738 7.51279C38.1813 8.04926 36.1457 8.41258 34.0898 8.59866ZM35.1383 11.6949V11.2693C36.615 10.7997 37.9735 10.3742 39.4207 9.97801C40.9103 9.55655 42.4497 9.33448 43.9984 9.31768V9.74322C42.5143 9.97698 41.0591 10.3655 39.657 10.9025C38.2215 11.4722 36.6833 11.7419 35.1383 11.6949ZM34.4886 23.0378V22.7737C34.4174 21.4392 34.4916 20.101 34.7101 18.7824L35.286 16.8014L37.6044 16.6546V17.0068H37.944C38.6451 16.6283 39.4216 16.4079 40.2181 16.3612L42.6103 16.2291L43.3487 16.6546C43.7322 17.4152 43.8011 18.2948 43.5407 19.1052L43.0386 20.6606V21.1595H42.6842L42.4774 21.6144C41.4779 21.5874 40.4806 21.7212 39.5241 22.0106C38.6029 22.2877 37.6592 22.4841 36.7036 22.5976V22.9351L34.4886 23.0378ZM35.5813 14.6443V14.2188C36.9005 13.7003 38.2147 13.2454 39.5241 12.8541C40.8807 12.4633 42.2915 12.2899 43.7031 12.3405C43.9541 12.4872 44.0132 12.7367 43.836 13.1035L43.3487 13.7199H43.201L42.9795 13.9987C42.1672 14.1937 41.3344 14.2922 40.4987 14.2921V13.8666L40.8974 13.4117H40.6611C39.8555 13.7818 39.0268 14.1004 38.1803 14.3655C37.3261 14.6048 36.4375 14.699 35.5518 14.6443H35.5813ZM40.5725 20.9247V20.5872C40.9657 19.8007 41.2157 18.9512 41.3108 18.078L41.0893 17.1389H40.3215L38.136 18.4595C38.0173 18.6257 37.8509 18.7524 37.6586 18.8231C37.4662 18.8938 37.2569 18.9051 37.058 18.8557L36.7774 21.2622V21.8345H37.0432L40.5725 20.9247ZM45.4308 12.9275V12.3992L48.4876 11.4601V11.2987H47.9855V10.7997L48.6352 8.87746H48.2956C47.6343 9.35345 46.9084 9.73387 46.1396 10.0074C45.3669 10.2725 44.5477 10.3773 43.7326 10.3155V9.88996C44.6121 9.35432 45.519 8.86452 46.4497 8.42257C47.3688 7.96093 48.3215 7.56852 49.2997 7.24866L50.171 4.81279L52.5632 4.68072V5.0329L51.943 6.67638C53.0589 6.41995 54.2265 6.50173 55.2951 6.91116C55.4972 7.46078 55.4972 8.06371 55.2951 8.61333L54.8078 9.74322H55.3985L58.5733 9.49377H58.7505V9.91931C56.4514 10.1159 54.1878 10.6092 52.0168 11.3867C49.8777 12.1484 47.6582 12.6653 45.4013 12.9275H45.4308ZM47.7197 4.47529V4.04975C49.3736 3.55083 51.0275 3.11061 52.7109 2.69974C54.428 2.29729 56.1891 2.10997 57.9531 2.14214V2.56768C56.2524 2.76282 54.5723 3.10655 52.9324 3.59485C51.226 4.09273 49.4664 4.38826 47.6901 4.47529H47.7197ZM46.8927 21.1595V20.9981C46.7579 20.1687 46.7282 19.3257 46.8041 18.4889C46.8927 17.6084 46.9813 16.7133 47.0847 15.8036L47.7787 13.9693L50.0971 13.8372V14.2921L49.8461 14.8057H50.0381C50.8608 14.2988 51.7814 13.9688 52.7404 13.8372C53.7176 13.6902 54.7057 13.6264 55.6938 13.6465C56.1692 13.6634 56.6237 13.8451 56.9785 14.1601C57.4543 15.0345 57.6059 16.0473 57.4068 17.0215C57.1405 18.2951 56.6399 19.509 55.9301 20.6019L53.6264 20.7193L53.7003 20.103H53.464L50.6435 20.9541L46.8927 21.1595ZM54.2023 18.9878C54.6382 18.1493 54.9183 17.2397 55.0293 16.3025C55.0474 15.9775 54.9933 15.6526 54.8708 15.3508C54.7483 15.049 54.5604 14.7777 54.3205 14.5563L53.6412 14.4095C52.8786 14.6844 52.1542 15.0542 51.4852 15.5101C50.8287 15.9687 50.1002 16.3158 49.3293 16.5372L49.1521 18.0046V20.3671H49.3883C50.1562 20.1617 50.865 19.9269 51.7363 19.6481C52.5314 19.3701 53.3457 19.1494 54.1728 18.9878H54.2023ZM54.9702 9.7579H52.7552V9.14159L53.2573 7.85029L53.1391 7.51279L52.4746 7.23398L51.692 7.43942L50.5697 10.7851H50.7321C52.1054 10.4329 53.4935 10.0661 54.9407 9.7579H54.9702Z" fill="black"/>
<path d="M67.3302 22.5246V22.099C68.1572 20.749 68.925 19.3697 69.6339 17.9757C70.3425 16.5762 70.8828 15.0986 71.2434 13.5735C71.2482 13.3022 71.1984 13.0326 71.0969 12.7806C70.9955 12.5287 70.8445 12.2993 70.6528 12.1061L69.9292 11.9594C68.246 12.409 66.6697 13.1871 65.2924 14.2485C63.9301 15.3244 62.2331 15.8952 60.4932 15.8626V15.4371C62.1844 14.2087 63.9891 13.1425 65.8831 12.2528C67.7274 11.3957 69.7571 11.0074 71.7898 11.123L73.1779 11.6512C73.4118 12.1 73.5544 12.5902 73.5975 13.0938C73.6405 13.5974 73.5833 14.1044 73.4289 14.586C72.9799 15.9539 72.4321 17.2878 71.7898 18.5773C71.1574 19.8745 70.4574 21.1382 69.6929 22.3632L67.3302 22.5246Z" fill="black"/>
<path d="M87.7972 19.2083L86.6011 18.6947C86.3296 18.1046 86.2876 17.4355 86.483 16.8164C87.3128 14.6214 88.2998 12.4882 89.4364 10.4333L92.8475 4.18217C92.6681 4.04876 92.4582 3.96152 92.2367 3.92824C92.0151 3.89496 91.7887 3.91666 91.5776 3.99141C88.6336 4.5773 85.762 5.47764 83.0128 6.67673C80.2476 7.90478 77.3415 8.79181 74.3594 9.31804V8.89249C77.5786 7.54249 80.8273 6.28054 84.1055 5.13597C87.3151 3.98931 90.6925 3.37459 94.1027 3.31641L95.0773 3.49249V3.68325H95.2398V4.53434C94.1765 6.34412 92.9607 8.48162 91.5923 10.9468C90.3643 13.0477 89.3738 15.277 88.639 17.5941L88.9786 18.2691C89.2238 18.4594 89.5115 18.5881 89.8175 18.6443C90.1234 18.7005 90.4384 18.6825 90.7358 18.5919C91.4831 18.3674 92.2491 18.2103 93.0247 18.1224C93.7535 18.0213 94.4892 17.9771 95.225 17.9903V18.4159L92.4636 19.0028L87.7972 19.2083Z" fill="black"/>
<path d="M14.7308 53.9852C13.6852 54.0181 12.668 53.6443 11.8955 52.9434C11.2717 51.8155 11.0927 50.4973 11.3935 49.2455L11.5707 48.6292L13.9334 48.4972V49.1868L13.7414 50.126C13.702 50.5441 13.747 50.9659 13.8738 51.3665C14.0006 51.7672 14.2066 52.1386 14.4797 52.4591L14.7898 52.7086V52.87L16.7686 53.3689C18.2815 53.0588 19.7639 52.6169 21.1987 52.0482C22.6805 51.4873 24.2499 51.1893 25.8355 51.1678V51.5934C24.0394 52.2792 22.2053 52.8622 20.3422 53.3396C18.5093 53.8037 16.6219 54.0209 14.7308 53.9852ZM19.3085 43.376V42.9211L20.2388 42.2901L20.8443 41.5711C22.0538 40.6561 23.0594 39.5019 23.7976 38.1814L23.1184 37.5651L21.4497 37.389C20.0858 37.5588 18.7441 37.8736 17.4479 38.3281C16.1352 38.7732 14.7592 39.006 13.3722 39.0178V38.6069C14.4837 38.2084 15.6178 37.8752 16.7686 37.6091C17.9204 37.345 19.1165 37.1249 20.3274 36.9488L23.7238 36.758C24.5683 36.6863 25.4109 36.9151 26.1013 37.4037V38.5923L24.8609 40.3531L23.1331 41.9819L22.3948 42.5982L21.6417 43.2439L19.3085 43.376Z" fill="black"/>
<path d="M42.921 52.43L42.286 52.1218L41.9759 51.8724C41.5479 51.227 41.289 50.4855 41.2228 49.7153C41.149 48.9229 41.0751 48.1305 40.9865 47.3381H40.7503L40.5287 47.617L38.4614 49.5099L37.5901 50.317L36.5565 51.0653C35.9899 51.7521 35.2024 52.2237 34.3267 52.4007C33.5557 52.5291 32.7752 52.5929 31.9935 52.5914L31.5357 52.3713C31.0879 51.0946 31.0415 49.7128 31.4028 48.4093C31.7474 46.5115 32.1461 44.6186 32.5989 42.7305C33.0707 40.8527 33.6575 39.0052 34.3562 37.1985L36.6303 37.0664V37.6093C35.9444 39.628 35.3628 41.6801 34.8878 43.7577C34.4005 45.8561 34.0018 47.9838 33.6917 50.1555V51.1827L34.43 50.7131L35.3899 49.818L36.7337 48.5561L38.2103 47.1767C38.7878 46.5556 39.5566 46.1426 40.3958 46.0028C41.1957 45.8685 42.0066 45.8096 42.8176 45.8267L43.4083 46.6338C43.4821 47.4849 43.556 48.336 43.6446 49.2164C43.7117 50.0543 44.0423 50.85 44.5896 51.4909H45.1065C47.7034 50.0042 50.0916 48.1836 52.2094 46.0762L54.6311 46.0028V46.4284C52.6967 48.0865 51.1904 49.3631 50.1272 50.1996C49.129 51.0235 47.9881 51.66 46.7604 52.0778C45.5173 52.4497 44.2116 52.5694 42.921 52.43Z" fill="black"/>
<path d="M58.2784 47.6754L57.8945 47.4699C57.7408 46.5665 57.7408 45.6439 57.8945 44.7406L59.9914 38.0933H59.6517C58.9767 38.4123 58.2614 38.6393 57.5253 38.7683C56.7649 38.8983 55.9926 38.9475 55.2217 38.915V38.4895L60.4049 36.8607L61.4238 34.0873C61.7657 33.1658 62.1601 32.2643 62.6051 31.3873L65.086 31.3286V31.7542C64.6915 32.4227 64.3364 33.1136 64.0227 33.8232C63.7422 34.5422 63.4764 35.2906 63.2106 36.0243H63.4764C64.6282 35.7308 65.78 35.3786 66.8875 34.9824C68.0216 34.5846 69.2142 34.3764 70.4168 34.3661V34.7917L70.3134 34.9824L62.7676 37.1982C62.2507 38.6656 61.7486 40.2063 61.2909 41.6004C60.7899 43.0822 60.3952 44.5974 60.1095 46.1346H60.272L61.2318 45.3129L63.5945 45.1808V45.6063L62.5608 46.5161C61.9717 47.002 61.2847 47.3569 60.546 47.5569C59.8074 47.7568 59.0341 47.7972 58.2784 47.6754ZM65.2927 52.0775C64.9716 52.0758 64.6545 52.007 64.3619 51.8755C64.0693 51.7441 63.8079 51.5529 63.5945 51.3145C63.3119 50.8043 63.2328 50.2071 63.373 49.6417C63.5799 48.9568 63.9438 48.3289 64.4362 47.8074L64.702 47.7047L64.8202 47.4406C65.4294 46.91 66.1297 46.4925 66.8875 46.208C67.6205 45.9449 68.3977 45.8254 69.1764 45.8558L69.4422 43.6987V42.7596L71.8344 42.6275L71.4062 45.8705C72.359 45.9468 73.2657 46.3103 74.0052 46.9123L74.3743 47.3232V47.4699H74.6254C74.8676 47.6935 75.0618 47.9635 75.1963 48.2635C75.3308 48.5636 75.4028 48.8876 75.408 49.2161L73.0305 49.3482L72.4103 48.1156L72.1888 48.0275L71.4062 47.4699C71.3708 48.7958 71.0163 50.094 70.3725 51.2558L69.9738 51.6226L69.0878 51.9895L65.2927 52.0775ZM67.5077 51.2118L68.4528 50.4047C68.8315 49.2083 69.0694 47.9724 69.1616 46.7216H68.8958L66.9761 47.8074C66.3611 48.4443 65.9102 49.2197 65.6619 50.0672L66.1492 51.0797L67.1829 51.4465L67.5077 51.2118ZM72.8829 40.5145V40.133C73.6212 39.1205 74.3596 38.0933 74.9502 37.0368H74.714C73.53 37.4929 72.3715 38.0122 71.2437 38.5922C70.1152 39.1681 68.8448 39.4124 67.5816 39.2965V38.871C69.0858 38.1018 70.634 37.4207 72.2184 36.8313C73.8234 36.2424 75.5294 35.9732 77.2391 36.0389C77.6083 36.1417 77.7116 36.4205 77.564 36.8754L75.2603 40.3384L72.8829 40.5145Z" fill="black"/>
<path d="M80.5914 48.6731H80.3699L80.1336 48.4237C79.8747 47.249 79.8747 46.0326 80.1336 44.8579L81.3149 39.1791L83.7072 39.047L83.6038 39.8981C83.3675 40.984 83.1165 42.0699 82.8802 43.1704C82.6249 44.2789 82.4326 45.4008 82.3043 46.5307L82.4372 47.5286H82.5997L84.0764 46.4427C85.0055 46.0408 86.0191 45.8696 87.0297 45.9438V46.3693L86.5572 46.5601L86.3652 46.8242C85.6144 47.5677 84.6916 48.1169 83.6776 48.4237C82.6684 48.6668 81.6269 48.751 80.5914 48.6731ZM95.2549 39.5313V39.1057L95.8456 38.2987L97.7357 35.9949L98.0311 35.0557H97.8391C96.6193 35.4477 95.434 35.9385 94.295 36.5231C93.1244 37.1336 91.8024 37.3984 90.4852 37.2862V36.8606C91.9156 36.1151 93.3957 35.468 94.9152 34.9237C96.5056 34.3659 98.1949 34.1411 99.8769 34.2633L100.423 34.4688V35.6574C99.966 36.5457 99.406 37.3779 98.7546 38.1373L98.5036 38.2547L97.8686 39.1351L97.6176 39.2231V39.3845L95.2549 39.5313ZM92.9365 49.5242L91.829 48.9373C91.3601 48.2979 90.9638 47.6089 90.6476 46.8829C90.3264 46.1169 90.0503 45.333 89.8207 44.5351H92.2129C92.5794 45.1946 92.9048 45.8757 93.1875 46.5748C93.4736 47.2687 93.8617 47.9165 94.3393 48.497L95.0777 48.7905C96.4766 48.1803 97.7836 47.3803 98.9614 46.4133C99.5327 45.9265 100.198 45.5609 100.917 45.3388C101.635 45.1168 102.392 45.043 103.14 45.122V45.5476C102.107 46.296 101.029 47.015 99.936 47.69C98.8395 48.3268 97.6939 48.8764 96.5101 49.3335L92.9365 49.5242Z" fill="black"/>
<path d="M104.528 39.7079V39.3557L107.615 38.0497C108.665 37.6195 109.808 37.4581 110.937 37.5802V38.0057L107.866 39.2383C106.81 39.6679 105.663 39.8293 104.528 39.7079ZM107.334 36.1715L107.895 31.4465L110.287 31.3291L109.8 36.0394L107.334 36.1715ZM107.792 49.1285H107.644V48.0867C108.038 47.1601 108.533 46.2793 109.121 45.46L111.528 45.2546V45.6801C110.866 46.3781 110.363 47.2087 110.051 48.116H112.355V48.4682C111.675 48.8427 110.916 49.0538 110.14 49.0845L107.792 49.1285ZM113.477 50.5959L113.551 50.009L114.245 47.0742L114.673 43.5524H114.245L112.768 43.9046L109.372 44.0807V43.5524C110.274 43.5716 111.176 43.4879 112.059 43.303C112.975 43.1122 113.846 42.9215 114.717 42.76L114.806 42.0557V40.2068H114.378L111.424 40.4416L111.631 37.903C111.882 36.8611 112.133 35.834 112.399 34.8361C112.647 33.8342 112.973 32.8529 113.374 31.9013C114.161 31.907 114.946 31.8083 115.707 31.6079V31.4171L113.669 31.5345V31.109C113.822 30.186 114.054 29.2778 114.363 28.3943C114.649 27.5123 115.025 26.6617 115.485 25.8557L117.759 25.7236V26.1492C117.333 26.957 116.983 27.8019 116.711 28.6731C116.434 29.5439 116.212 30.4309 116.046 31.3291H116.209C116.963 30.9262 117.804 30.7097 118.66 30.6981L121.274 30.566L122.234 31.0943V31.3584H122.396C122.714 32.1292 122.835 32.9657 122.751 33.7943C122.662 34.7041 122.559 35.6138 122.455 36.5383C122.204 37.7313 121.808 38.8894 121.274 39.9867L118.97 40.1334V39.7079L119.236 39.0035H118.97L115.914 39.8546V40.016H117.11C117.257 40.777 117.257 41.5589 117.11 42.3198H117.449C118.276 42.0948 119.118 41.9041 119.974 41.7475C120.858 41.5996 121.752 41.526 122.647 41.5274V41.953L117.184 43.0682L116.947 45.0492H118.778V45.2253L119.812 45.8269L120.107 46.1644C121.026 46.6858 122.023 47.0574 123.061 47.2649C124.134 47.5037 125.226 47.651 126.324 47.7052V48.1307L123.592 48.2774C122.429 48.1782 121.274 47.9967 120.137 47.7345C119.071 47.4936 118.066 47.0393 117.184 46.3992L116.726 46.1057C116.563 46.8394 116.416 47.5731 116.268 48.3215C116.12 49.0698 115.958 49.7888 115.766 50.4638L113.477 50.5959ZM119.517 38.3872V38.1965C119.884 37.0486 120.17 35.8767 120.373 34.6894C120.52 33.6385 120.324 32.5684 119.812 31.6372L119.251 31.3291C118.112 31.8159 117.044 32.4525 116.076 33.222L115.795 33.5595H115.101L114.525 35.5845H114.688C115.529 35.2484 116.399 34.9881 117.287 34.8068C118.199 34.6124 119.13 34.514 120.063 34.5133V34.9388C119.113 35.1659 118.18 35.4602 117.272 35.8193C116.361 36.1911 115.391 36.3998 114.407 36.4356L113.758 39.5465H114.112C114.983 39.2677 115.884 39.0035 116.785 38.7687C117.675 38.5227 118.593 38.3944 119.517 38.3872ZM125.113 36.1128L124.301 35.8193C124.138 35.5426 124.037 35.2344 124.004 34.9155C123.97 34.5966 124.007 34.2743 124.109 33.9704C124.67 32.7175 125.417 31.5551 126.324 30.522L126.59 30.2725L128.894 30.1405V30.566C128.347 31.2117 127.83 31.872 127.328 32.5617C126.839 33.2097 126.529 33.9735 126.428 34.7774L126.634 35.2617L127.801 35.4671L131.064 35.1003V35.5258L129.411 35.8927L125.113 36.1128Z" fill="black"/>
<path d="M137.503 47.6608C136.337 47.5958 135.223 47.1583 134.328 46.4135L133.427 44.9461C133.17 44.1402 133.055 43.2963 133.087 42.4515C133.087 41.5711 133.176 40.676 133.294 39.7662C133.638 37.8813 134.131 36.0266 134.771 34.2195C135.402 32.3771 136.187 30.5904 137.119 28.8782L139.393 28.7461V29.333C138.401 31.2149 137.576 33.1788 136.927 35.2026C136.282 37.2146 135.832 39.2832 135.583 41.3803C135.515 42.2386 135.595 43.102 135.819 43.9336C136.026 44.7223 136.457 45.4353 137.06 45.9879C137.44 46.3333 137.888 46.5964 138.376 46.7606C138.865 46.9248 139.382 46.9865 139.895 46.9417C140.614 46.7114 141.304 46.3961 141.947 46.0026C142.627 45.6064 143.291 45.1809 143.956 44.7553L144.089 44.4912L145.137 43.508H145.24L145.654 42.8771L145.935 42.789L146.717 41.6004H146.865L148.342 39.5608L150.66 39.4434V39.9423C149.804 41.1542 148.872 42.3109 147.869 43.4053L147.588 43.4934L146.717 44.5352L146.186 44.7994L146.082 45.0782C145.347 45.6389 144.561 46.1302 143.734 46.5455C142.914 46.9678 142.032 47.2599 141.121 47.4113L137.503 47.6608Z" fill="black"/>
<path d="M154.219 44.5353L153.909 44.2859V44.1244L153.599 43.875C153.273 42.7059 153.158 41.4888 153.259 40.2799C153.368 39.0081 153.5 37.7168 153.658 36.406C153.825 34.9951 154.131 33.6041 154.574 32.2532L156.862 32.1358L156.774 32.8255C156.493 33.8274 156.281 34.8472 156.139 35.8777C155.976 36.9342 155.843 37.9907 155.711 39.0766C155.711 39.825 155.711 40.544 155.711 41.307C155.724 42.0189 155.838 42.7253 156.05 43.4054H156.198L157.335 42.4956H157.497L157.616 42.2168L158.088 41.7619L159.122 41.0576L159.432 40.5L160.023 39.9717H160.185L160.51 39.4581L161.263 38.6511H161.484L161.588 38.3723L163.906 38.2549V38.6804L163.301 39.3994H163.138L162.813 39.913L162.562 40.0304L162.223 40.5587L160.421 42.2755L157.807 44.1831C156.626 44.4162 155.424 44.5341 154.219 44.5353ZM169.724 41.6005V41.5125C169.724 39.9277 169.724 38.3576 169.621 36.8168C169.588 35.2751 169.465 33.7367 169.252 32.2092L171.555 32.0771L171.703 32.1505C171.928 33.6819 172.056 35.2256 172.087 36.7728C172.087 38.3282 172.087 39.8983 172.087 41.4685L169.724 41.6005Z" fill="black"/>
<path d="M175.276 46.1936V45.5919L175.941 44.2713L178.318 44.1539V44.5794L177.55 46.0468L175.276 46.1936ZM177.58 41.043V40.6175C178.82 37.8392 180.105 35.0414 181.434 32.224C182.763 29.4066 184.171 26.6626 185.657 23.9919L188.05 23.8599V24.2854C186.465 26.9854 184.988 29.7294 183.62 32.5175C182.251 35.3055 181.001 38.118 179.869 40.955L177.58 41.043Z" fill="black"/>
</svg>
