<svg width="383" height="383" viewBox="0 0 383 383" fill="none" xmlns="http://www.w3.org/2000/svg">
<path d="M191.5 -0.000191476C233.227 -0.0001933 273.812 13.6285 307.081 38.8129C340.351 63.9973 364.484 99.3589 375.81 139.519C387.137 179.679 385.036 222.439 369.828 261.296C354.62 300.152 327.137 332.978 291.559 354.78C255.981 376.582 214.256 386.168 172.73 382.078C131.204 377.988 92.1507 360.447 61.5099 332.123C30.869 303.798 10.3179 266.242 2.98253 225.165C-4.35286 184.088 1.92898 141.739 20.8725 104.561L191.5 191.5L191.5 -0.000191476Z" fill="#FF9000"/>
<path d="M86.0364 216.127C88.1444 216.127 90.0654 216.45 91.7994 217.096C93.5674 217.742 94.9784 218.711 96.0324 220.003C97.1204 221.295 97.6644 222.927 97.6644 224.899C97.6644 227.075 97.0354 228.877 95.7774 230.305C94.5534 231.699 93.0064 232.855 91.1364 233.773C92.4284 234.453 93.6524 235.252 94.8084 236.17C95.9984 237.054 96.9504 238.108 97.6644 239.332C98.4124 240.522 98.7864 241.933 98.7864 243.565C98.7864 245.571 98.2424 247.322 97.1544 248.818C96.1004 250.314 94.6044 251.47 92.6664 252.286C90.7624 253.102 88.5524 253.51 86.0364 253.51C81.9564 253.51 78.7944 252.643 76.5504 250.909C74.3404 249.175 73.2354 246.795 73.2354 243.769C73.2354 241.253 73.9154 239.23 75.2754 237.7C76.6354 236.17 78.2844 234.929 80.2224 233.977C78.5904 232.957 77.1964 231.733 76.0404 230.305C74.9184 228.843 74.3574 227.024 74.3574 224.848C74.3574 222.91 74.9014 221.295 75.9894 220.003C77.0774 218.711 78.5054 217.742 80.2734 217.096C82.0754 216.45 83.9964 216.127 86.0364 216.127ZM85.9854 221.737C84.7274 221.737 83.6734 222.06 82.8234 222.706C82.0074 223.352 81.5994 224.27 81.5994 225.46C81.5994 226.718 82.0414 227.738 82.9254 228.52C83.8094 229.302 84.8464 229.982 86.0364 230.56C87.1924 230.016 88.2124 229.37 89.0964 228.622C89.9804 227.84 90.4224 226.786 90.4224 225.46C90.4224 224.27 89.9974 223.352 89.1474 222.706C88.3314 222.06 87.2774 221.737 85.9854 221.737ZM80.3754 243.31C80.3754 244.636 80.8344 245.724 81.7524 246.574C82.7044 247.424 84.0984 247.849 85.9344 247.849C87.8384 247.849 89.2664 247.441 90.2184 246.625C91.1704 245.809 91.6464 244.721 91.6464 243.361C91.6464 242.443 91.3744 241.644 90.8304 240.964C90.2864 240.25 89.6064 239.621 88.7904 239.077C88.0084 238.499 87.1924 237.972 86.3424 237.496L85.6794 237.139C84.1154 237.887 82.8404 238.754 81.8544 239.74C80.8684 240.726 80.3754 241.916 80.3754 243.31Z" fill="white"/>
<path d="M128.125 253H102.676V247.645L111.805 238.414C113.641 236.51 115.12 234.929 116.242 233.671C117.364 232.379 118.18 231.223 118.69 230.203C119.2 229.149 119.455 228.027 119.455 226.837C119.455 225.375 119.047 224.287 118.231 223.573C117.449 222.859 116.378 222.502 115.018 222.502C113.624 222.502 112.264 222.825 110.938 223.471C109.612 224.117 108.218 225.035 106.756 226.225L102.574 221.278C103.628 220.36 104.733 219.51 105.889 218.728C107.079 217.946 108.439 217.317 109.969 216.841C111.533 216.331 113.403 216.076 115.579 216.076C117.959 216.076 119.999 216.518 121.699 217.402C123.433 218.252 124.759 219.425 125.677 220.921C126.629 222.383 127.105 224.049 127.105 225.919C127.105 227.925 126.697 229.761 125.881 231.427C125.099 233.093 123.943 234.742 122.413 236.374C120.917 238.006 119.098 239.808 116.956 241.78L112.264 246.166V246.523H128.125V253Z" fill="white"/>
<path d="M132.728 249.43C132.728 247.866 133.153 246.778 134.003 246.166C134.853 245.52 135.89 245.197 137.114 245.197C138.304 245.197 139.324 245.52 140.174 246.166C141.024 246.778 141.449 247.866 141.449 249.43C141.449 250.926 141.024 252.014 140.174 252.694C139.324 253.34 138.304 253.663 137.114 253.663C135.89 253.663 134.853 253.34 134.003 252.694C133.153 252.014 132.728 250.926 132.728 249.43Z" fill="white"/>
<path d="M159.664 229.744C161.874 229.744 163.846 230.169 165.58 231.019C167.314 231.869 168.674 233.11 169.66 234.742C170.68 236.374 171.19 238.397 171.19 240.811C171.19 244.755 169.966 247.866 167.518 250.144C165.07 252.388 161.449 253.51 156.655 253.51C154.751 253.51 152.949 253.34 151.249 253C149.583 252.66 148.121 252.167 146.863 251.521V244.891C148.121 245.537 149.634 246.098 151.402 246.574C153.17 247.016 154.836 247.237 156.4 247.237C158.678 247.237 160.412 246.778 161.602 245.86C162.826 244.908 163.438 243.446 163.438 241.474C163.438 237.802 161.007 235.966 156.145 235.966C155.193 235.966 154.207 236.068 153.187 236.272C152.167 236.442 151.317 236.612 150.637 236.782L147.577 235.15L148.954 216.586H168.691V223.114H155.686L155.023 230.254C155.601 230.152 156.213 230.05 156.859 229.948C157.539 229.812 158.474 229.744 159.664 229.744Z" fill="white"/>
<path d="M179.99 244.768C182.986 244.768 185.058 242.304 185.058 238.132C185.058 233.96 182.986 231.58 179.99 231.58C177.022 231.58 174.922 233.96 174.922 238.132C174.922 242.304 177.022 244.768 179.99 244.768ZM179.99 242.416C178.786 242.416 177.834 241.184 177.834 238.132C177.834 235.08 178.786 233.904 179.99 233.904C181.222 233.904 182.174 235.08 182.174 238.132C182.174 241.184 181.222 242.416 179.99 242.416ZM195.138 253.14C198.106 253.14 200.206 250.676 200.206 246.532C200.206 242.36 198.106 239.952 195.138 239.952C192.17 239.952 190.042 242.36 190.042 246.532C190.042 250.676 192.17 253.14 195.138 253.14ZM195.138 250.816C193.906 250.816 192.954 249.556 192.954 246.532C192.954 243.452 193.906 242.304 195.138 242.304C196.37 242.304 197.294 243.452 197.294 246.532C197.294 249.556 196.37 250.816 195.138 250.816ZM180.69 253.14H183.126L194.466 231.58H192.002L180.69 253.14Z" fill="white"/>
<path d="M213.733 243.22C212.956 243.22 212.116 242.191 212.116 240.091C212.116 237.802 213.943 234.778 217.387 234.064C217.135 235.786 216.757 237.571 216.274 239.104C215.434 241.918 214.594 243.22 213.733 243.22ZM219.445 247.861C224.695 247.063 227.383 243.955 227.383 239.587C227.383 235.051 224.128 231.46 218.983 231.46C213.586 231.46 209.407 235.576 209.407 240.364C209.407 243.871 211.36 246.412 213.649 246.412C215.917 246.412 217.723 243.85 218.962 239.65C219.55 237.697 219.907 235.765 220.201 234.001C222.994 234.484 224.548 236.626 224.548 239.503C224.548 242.527 222.49 244.438 219.823 245.068C219.277 245.194 218.689 245.299 217.891 245.404L219.445 247.861Z" fill="white"/>
<path d="M237.904 232.615C238.261 233.434 238.576 234.484 238.702 235.219H234.691L235.783 234.904C235.573 234.232 235.09 233.287 234.607 232.51C236.392 232.426 238.219 232.3 239.983 232.132L237.904 232.615ZM232.696 237.382H246.241V239.776H248.677V235.219H245.695C246.178 234.442 246.724 233.581 247.207 232.699L244.54 232.069C244.225 233.014 243.679 234.253 243.175 235.219H239.521L241.075 234.841C240.949 234.085 240.55 232.972 240.13 232.132C242.923 231.88 245.632 231.544 247.9 231.124L246.22 229.108C242.398 229.843 236.077 230.347 230.554 230.536C230.785 231.082 231.079 232.027 231.121 232.657C232.129 232.636 233.2 232.594 234.25 232.531L232.381 233.056C232.759 233.728 233.158 234.568 233.368 235.219H230.365V239.776H232.696V237.382ZM242.377 241.288C241.621 242.254 240.634 243.052 239.521 243.724C238.261 243.031 237.19 242.233 236.329 241.288H242.377ZM244.456 238.894L243.994 238.999H233.389V241.288H234.376L233.683 241.582C234.607 242.863 235.72 243.976 237.001 244.879C234.922 245.656 232.486 246.139 229.861 246.412C230.386 246.916 231.079 248.029 231.331 248.617C234.292 248.218 237.085 247.525 239.5 246.37C241.768 247.483 244.477 248.197 247.522 248.575C247.858 247.903 248.53 246.811 249.055 246.244C246.472 246.013 244.12 245.53 242.104 244.816C243.805 243.577 245.191 241.981 246.136 239.923L244.456 238.894Z" fill="white"/>
<path d="M257.287 229.864H251.722V231.754H257.287V229.864ZM257.959 232.762H250.693V234.736H257.959V232.762ZM257.35 235.765H251.596V237.634H257.35V235.765ZM251.596 240.574H257.35V238.684H251.596V240.574ZM255.334 243.619V246.013H253.591V243.619H255.334ZM257.413 241.645H251.533V248.806H253.591V247.987H257.413V241.645ZM265.12 243.787V242.8H267.073V243.787H265.12ZM261.088 242.8H263.062V243.787H261.088V242.8ZM263.062 240.28V241.267H261.088V240.28H263.062ZM267.073 240.28V241.267H265.12V240.28H267.073ZM262.936 235.009H265.372V235.912H262.936V235.009ZM262.936 232.447H265.372V233.287H262.936V232.447ZM270.391 243.787H269.341V238.558H265.12V237.802H270.349V235.912H267.619V235.009H269.53V233.287H267.619V232.447H269.971V230.683H267.619V229.213H265.372V230.683H262.936V229.213H260.71V230.683H258.526V232.447H260.71V233.287H258.904V235.009H260.71V235.912H257.98V237.802H263.062V238.558H258.988V243.787H257.938V245.761H258.988V248.827H261.088V245.761H267.073V246.601C267.073 246.853 266.989 246.916 266.716 246.937C266.464 246.937 265.54 246.937 264.721 246.895C264.973 247.441 265.225 248.239 265.288 248.827C266.695 248.827 267.724 248.806 268.417 248.491C269.131 248.176 269.341 247.672 269.341 246.622V245.761H270.391V243.787Z" fill="white"/>
<path d="M281.311 233.644H284.734C284.02 234.316 283.264 234.946 282.466 235.555H281.311V233.644ZM285.889 242.821H278.665V241.477H285.889V242.821ZM278.665 246.139V244.711H285.889V246.139H278.665ZM290.908 237.76V235.555H286.036C287.569 234.148 288.976 232.594 290.173 230.935L288.031 229.843C287.38 230.767 286.666 231.649 285.868 232.51V231.481H281.311V229.213H278.833V231.481H273.898V233.644H278.833V235.555H272.092V237.76H279.232C276.817 239.188 274.171 240.385 271.42 241.246C271.903 241.75 272.638 242.758 272.953 243.304C274.024 242.905 275.116 242.443 276.166 241.981V248.848H278.665V248.218H285.889V248.764H288.493V239.44H280.87C281.731 238.894 282.529 238.348 283.348 237.76H290.908Z" fill="white"/>
<path d="M312.58 231.67C312.223 230.935 311.446 229.612 310.879 228.814L309.22 229.507C309.808 230.284 310.48 231.523 310.921 232.405L312.58 231.67ZM298.468 230.305C298.489 231.607 298.321 233.119 298.027 234.715C296.977 234.799 295.99 234.862 295.339 234.883C294.583 234.904 293.89 234.946 293.134 234.883L293.365 237.697C294.016 237.592 295.087 237.445 295.675 237.382C296.074 237.319 296.725 237.235 297.46 237.151C296.725 239.986 295.297 244.144 293.281 246.874L295.99 247.966C297.901 244.9 299.413 240.007 300.232 236.857C300.82 236.815 301.324 236.773 301.66 236.773C302.962 236.773 303.676 237.004 303.676 238.663C303.676 240.721 303.403 243.199 302.836 244.354C302.5 245.047 301.975 245.257 301.282 245.257C300.736 245.257 299.518 245.047 298.72 244.816L299.182 247.567C299.875 247.735 300.883 247.861 301.66 247.861C303.256 247.861 304.39 247.399 305.083 245.95C305.965 244.144 306.259 240.826 306.259 238.369C306.259 235.387 304.705 234.4 302.5 234.4C302.08 234.4 301.45 234.442 300.757 234.484C300.904 233.728 301.072 232.972 301.198 232.342C301.303 231.817 301.429 231.166 301.555 230.62L298.468 230.305ZM310.081 232.636C309.661 231.859 308.926 230.536 308.401 229.759L306.742 230.452C307.225 231.124 307.75 232.132 308.17 232.93L306.238 233.749C307.729 235.597 309.199 239.272 309.745 241.582L312.391 240.343C311.782 238.516 310.228 235.009 309.01 233.098L310.081 232.636Z" fill="white"/>
<path d="M85.4499 278.666C85.2189 278.435 84.6519 277.868 84.0219 277.28C84.5889 276.692 85.2399 275.936 85.9749 275.222L84.3789 273.899C84.0219 274.55 83.4129 275.516 82.8669 276.23C82.6569 276.041 82.4679 275.873 82.2999 275.726C83.3499 274.172 84.2529 272.471 84.8829 270.749L83.4759 269.825L83.0769 269.93H82.1739V266.234H79.7169V269.93H77.0079V272.177H81.7959C80.5149 274.676 78.4779 277.133 76.4199 278.561C76.8189 279.002 77.4699 280.22 77.7009 280.829C78.3729 280.304 79.0449 279.695 79.7169 278.981V285.827H82.1739V278.288C82.8669 279.086 83.5599 279.968 83.9589 280.577L85.4499 278.666ZM84.6939 267.83V270.182H87.7179C87.6129 275.537 87.2979 280.85 82.9929 283.874C83.6439 284.357 84.4209 285.176 84.8409 285.848C89.5239 282.299 90.0909 276.251 90.2589 270.182H93.3039C93.1569 278.771 92.9259 282.152 92.3379 282.845C92.1069 283.16 91.8969 283.244 91.5609 283.244C91.0569 283.244 90.0699 283.244 88.9779 283.16C89.4189 283.895 89.7129 285.008 89.7549 285.743C90.8889 285.764 92.0439 285.785 92.7999 285.638C93.5979 285.491 94.1229 285.218 94.6899 284.378C95.4879 283.244 95.6769 279.59 95.8659 269.09C95.8869 268.754 95.8869 267.83 95.8869 267.83H84.6939Z" fill="white"/>
<path d="M98.4909 278.498C98.3229 280.262 97.9869 282.131 97.3779 283.37C97.9239 283.559 98.8479 284 99.2889 284.273C99.8979 282.929 100.339 280.829 100.549 278.855L98.4909 278.498ZM104.329 277.154C104.455 277.553 104.539 277.931 104.602 278.246L106.387 277.448C106.156 276.251 105.337 274.424 104.518 272.996L102.88 273.689C103.132 274.151 103.384 274.655 103.594 275.18L101.326 275.285C102.649 273.584 104.098 271.463 105.253 269.636L103.216 268.691C102.733 269.72 102.061 270.917 101.347 272.093C101.137 271.82 100.885 271.547 100.633 271.253C101.389 270.098 102.229 268.46 102.985 267.032L100.822 266.234C100.465 267.347 99.8769 268.733 99.2889 269.888C99.1209 269.741 98.9529 269.594 98.8059 269.468L97.6089 271.169C98.4699 272.009 99.4779 273.122 100.087 274.025C99.7509 274.508 99.4359 274.949 99.1209 275.369L97.5879 275.432L97.7979 277.595C98.7009 277.532 99.7509 277.469 100.843 277.406V285.848H103.006V277.259L104.329 277.154ZM109.264 269.72H111.742C111.448 271.484 111.049 273.668 110.65 275.432L112.876 275.684L113.044 274.865H114.409C113.926 276.713 113.212 278.33 112.309 279.674C110.692 277.259 109.789 274.109 109.264 270.539V269.72ZM115.648 272.555L115.228 272.639H113.506C113.842 270.896 114.157 269.09 114.367 267.536L112.708 267.326L112.33 267.431H105.358V269.72H107.101V272.849C107.101 275.096 106.954 278.12 105.862 280.892C105.61 280.052 105.253 279.065 104.896 278.288L103.132 278.855C103.594 280.01 104.077 281.501 104.266 282.488L105.316 282.11C104.896 282.929 104.371 283.706 103.72 284.42C104.287 284.693 105.127 285.344 105.547 285.743C107.626 283.433 108.571 280.409 108.97 277.553C109.474 279.002 110.083 280.325 110.86 281.501C109.873 282.509 108.739 283.328 107.479 283.937C108.004 284.315 108.823 285.239 109.159 285.785C110.314 285.155 111.385 284.357 112.351 283.349C113.38 284.378 114.598 285.218 116.047 285.848C116.362 285.218 117.055 284.273 117.559 283.832C116.089 283.307 114.871 282.53 113.842 281.543C115.375 279.359 116.509 276.566 117.139 273.122L115.648 272.555Z" fill="white"/>
<path d="M124.069 284.882C124.573 284.567 125.035 284.42 125.329 284.315C130.264 282.698 134.632 280.199 137.509 276.755L136.018 274.382C133.33 277.658 128.647 280.346 125.224 281.312V270.413C125.224 269.594 125.308 268.838 125.434 268.04H122.137C122.263 268.628 122.368 269.615 122.368 270.413V281.795C122.368 282.278 122.347 282.635 122.095 283.16L124.069 284.882Z" fill="white"/>
<path d="M153.889 269.447L152.062 270.203C152.839 271.295 153.364 272.303 153.973 273.626L155.863 272.807C155.401 271.841 154.477 270.329 153.889 269.447ZM156.703 268.292L154.897 269.111C155.674 270.161 156.241 271.127 156.913 272.45L158.74 271.568C158.257 270.623 157.312 269.132 156.703 268.292ZM139.756 278.036L142.234 280.577C142.591 280.031 143.095 279.275 143.578 278.624C144.439 277.469 145.951 275.39 146.77 274.34C147.379 273.584 147.736 273.584 148.471 274.214C149.248 274.865 151.033 276.818 152.335 278.372C153.574 279.821 155.485 282.152 156.829 283.874L159.076 281.438C157.564 279.695 155.317 277.301 153.91 275.768C152.608 274.361 151.033 272.702 149.626 271.505C147.904 270.056 146.77 270.203 145.51 271.694C144.082 273.416 142.444 275.474 141.478 276.44C140.848 277.07 140.386 277.511 139.756 278.036Z" fill="white"/>
<path d="M163.402 284.924C165.208 283.328 166.51 281.27 167.14 278.897C167.707 276.776 167.77 272.345 167.77 269.867C167.77 269.006 167.896 268.061 167.917 267.977H164.83C164.956 268.481 165.019 269.048 165.019 269.888C165.019 272.429 164.998 276.398 164.41 278.204C163.822 279.989 162.688 281.921 160.84 283.223L163.402 284.924ZM172.306 284.987C172.579 284.777 172.789 284.588 173.23 284.357C175.582 283.16 178.606 280.892 180.349 278.624L178.732 276.314C177.325 278.351 175.246 280.01 173.545 280.745V269.762C173.545 268.817 173.671 267.998 173.692 267.935H170.563C170.584 267.998 170.731 268.796 170.731 269.741V281.984C170.731 282.551 170.647 283.139 170.563 283.538L172.306 284.987Z" fill="white"/>
<path d="M187.615 267.158C187.636 268.46 187.468 269.972 187.174 271.568C186.124 271.652 185.137 271.715 184.486 271.736C183.73 271.757 183.037 271.799 182.281 271.736L182.512 274.55C183.163 274.445 184.234 274.298 184.822 274.235C185.221 274.172 185.872 274.088 186.607 274.004C185.851 276.839 184.444 280.997 182.407 283.727L185.137 284.819C187.048 281.753 188.56 276.86 189.358 273.71C189.946 273.668 190.45 273.626 190.786 273.626C192.109 273.626 192.823 273.857 192.823 275.516C192.823 277.574 192.55 280.052 191.962 281.207C191.647 281.9 191.101 282.11 190.408 282.11C189.862 282.11 188.665 281.9 187.867 281.669L188.329 284.42C189.022 284.588 190.009 284.714 190.807 284.714C192.382 284.714 193.537 284.252 194.23 282.803C195.112 280.997 195.406 277.679 195.406 275.222C195.406 272.24 193.852 271.253 191.647 271.253C191.227 271.253 190.597 271.295 189.904 271.337C190.051 270.581 190.219 269.825 190.324 269.195C190.429 268.67 190.576 268.019 190.702 267.473L187.615 267.158ZM195.364 270.476C196.855 272.324 198.346 276.083 198.892 278.393L201.517 277.154C200.887 275.18 199.144 271.211 197.884 269.426L195.364 270.476Z" fill="white"/>
<path d="M208.384 269.678C210.001 270.098 214.642 271.064 216.742 271.337L217.372 268.775C215.545 268.565 211.03 267.767 209.056 267.158L208.384 269.678ZM209.182 271.337L206.368 270.959C206.242 273.542 205.738 277.595 205.339 279.632L207.754 280.241C207.922 279.821 208.153 279.485 208.531 279.023C209.833 277.448 211.912 276.587 214.264 276.587C216.091 276.587 217.372 277.574 217.372 278.918C217.372 281.564 214.075 283.097 207.838 282.215L208.636 284.945C217.288 285.701 220.291 282.782 220.291 278.981C220.291 276.461 218.17 274.214 214.516 274.214C212.353 274.214 210.295 274.823 208.405 276.188C208.552 274.991 208.909 272.492 209.182 271.337Z" fill="white"/>
<path d="M238.792 268.481C238.372 268.628 237.532 268.754 236.608 268.754H229.216C228.586 268.754 227.305 268.691 226.738 268.607V271.589C227.179 271.568 228.334 271.442 229.216 271.442H236.335C235.873 272.933 234.592 275.012 233.206 276.587C231.232 278.792 227.977 281.333 224.596 282.614L226.759 284.882C229.636 283.517 232.429 281.333 234.655 278.981C236.629 280.892 238.582 283.034 239.947 284.924L242.341 282.845C241.102 281.333 238.561 278.645 236.482 276.839C237.889 274.949 239.065 272.702 239.779 271.064C239.968 270.644 240.346 269.993 240.514 269.762L238.792 268.481Z" fill="white"/>
<path d="M260.737 269.279C260.275 269.426 259.561 269.51 258.91 269.51H254.605L254.626 269.489C254.878 269.048 255.424 268.082 255.928 267.347L252.883 266.402C252.694 267.137 252.253 268.103 251.938 268.607C250.888 270.434 248.935 273.311 245.239 275.579L247.507 277.322C249.628 275.873 251.581 273.857 253.051 271.904H259.078C258.763 273.164 257.923 274.886 256.894 276.377C255.487 275.537 254.059 274.739 252.946 274.172L251.161 276.167C252.232 276.776 253.66 277.637 255.088 278.561C253.345 280.346 250.972 282.131 247.255 283.265L249.691 285.386C253.093 284.084 255.571 282.194 257.44 280.157C258.217 280.703 258.889 281.207 259.393 281.648L261.304 279.191C260.779 278.813 260.065 278.33 259.288 277.847C260.674 275.831 261.64 273.71 262.186 272.093C262.375 271.568 262.648 271.001 262.879 270.602L260.737 269.279Z" fill="white"/>
<path d="M266.932 277.574C267.709 277.511 269.116 277.469 270.313 277.469H281.59C282.472 277.469 283.543 277.553 284.047 277.574V274.277C283.501 274.319 282.556 274.403 281.59 274.403H270.313C269.221 274.403 267.688 274.34 266.932 274.277V277.574Z" fill="white"/>
<path d="M304.249 276.272C302.317 275.327 298.285 273.836 295.471 273.017V269.93C295.471 269.048 295.576 268.124 295.66 267.389H292.384C292.531 268.124 292.594 269.174 292.594 269.93V281.984C292.594 282.824 292.51 284.084 292.384 284.903H295.66C295.576 284.063 295.471 282.593 295.471 281.984V276.041C297.739 276.818 300.889 278.036 303.052 279.17L304.249 276.272Z" fill="white"/>
<path fill-rule="evenodd" clip-rule="evenodd" d="M375 190C375 88.9492 292.862 7.00002 191.5 7.00002C90.1384 7.00003 7.99999 88.9492 7.99999 190C8 291.051 90.1384 373 191.5 373C292.862 373 375 291.051 375 190ZM382 190C382 85.0659 296.71 1.75917e-05 191.5 2.21906e-05C86.2897 2.67894e-05 0.999987 85.0659 0.999992 190C0.999996 294.934 86.2898 380 191.5 380C296.71 380 382 294.934 382 190Z" fill="#FF9000"/>
</svg>
